<svg viewBox="0 0 300 220" xmlns="http://www.w3.org/2000/svg">
  <rect width="300" height="220" fill="#1a1a2e" rx="8"/>
  <text x="150" y="18" fill="#ddd" font-size="11" font-family="sans-serif" font-weight="bold" text-anchor="middle">UMAP Projection of Agent Traces</text>
  <!-- axes -->
  <line x1="25" y1="205" x2="285" y2="205" stroke="#555"/>
  <line x1="25" y1="25" x2="25" y2="205" stroke="#555"/>
  <text x="155" y="218" fill="#888" font-size="8" font-family="monospace" text-anchor="middle">UMAP-1</text>
  <text x="10" y="115" fill="#888" font-size="8" font-family="monospace" text-anchor="middle" transform="rotate(-90,10,115)">UMAP-2</text>
  <!-- Cluster A (bottom-left, blue) -->
  <circle cx="60" cy="165" r="3.5" fill="#3498db" opacity="0.6"/>
  <circle cx="72" cy="172" r="3.5" fill="#3498db" opacity="0.6"/>
  <circle cx="55" cy="155" r="3.5" fill="#3498db" opacity="0.6"/>
  <circle cx="80" cy="162" r="3.5" fill="#3498db" opacity="0.6"/>
  <circle cx="65" cy="178" r="3.5" fill="#3498db" opacity="0.6"/>
  <circle cx="48" cy="168" r="3.5" fill="#3498db" opacity="0.6"/>
  <circle cx="75" cy="150" r="3.5" fill="#3498db" opacity="0.6"/>
  <circle cx="88" cy="170" r="3.5" fill="#3498db" opacity="0.6"/>
  <circle cx="58" cy="180" r="3.5" fill="#3498db" opacity="0.6"/>
  <circle cx="70" cy="145" r="3.5" fill="#3498db" opacity="0.6"/>
  <circle cx="82" cy="155" r="3.5" fill="#3498db" opacity="0.6"/>
  <!-- Cluster B (top-right, green) -->
  <circle cx="210" cy="55" r="3.5" fill="#2ecc71" opacity="0.6"/>
  <circle cx="225" cy="48" r="3.5" fill="#2ecc71" opacity="0.6"/>
  <circle cx="200" cy="65" r="3.5" fill="#2ecc71" opacity="0.6"/>
  <circle cx="235" cy="60" r="3.5" fill="#2ecc71" opacity="0.6"/>
  <circle cx="218" cy="42" r="3.5" fill="#2ecc71" opacity="0.6"/>
  <circle cx="240" cy="52" r="3.5" fill="#2ecc71" opacity="0.6"/>
  <circle cx="205" cy="72" r="3.5" fill="#2ecc71" opacity="0.6"/>
  <circle cx="228" cy="68" r="3.5" fill="#2ecc71" opacity="0.6"/>
  <circle cx="215" cy="78" r="3.5" fill="#2ecc71" opacity="0.6"/>
  <!-- Cluster C (middle, orange) -->
  <circle cx="155" cy="115" r="3.5" fill="#e67e22" opacity="0.6"/>
  <circle cx="168" cy="108" r="3.5" fill="#e67e22" opacity="0.6"/>
  <circle cx="142" cy="122" r="3.5" fill="#e67e22" opacity="0.6"/>
  <circle cx="160" cy="128" r="3.5" fill="#e67e22" opacity="0.6"/>
  <circle cx="175" cy="118" r="3.5" fill="#e67e22" opacity="0.6"/>
  <circle cx="148" cy="105" r="3.5" fill="#e67e22" opacity="0.6"/>
  <circle cx="165" cy="132" r="3.5" fill="#e67e22" opacity="0.6"/>
  <!-- Outliers (red, scattered) -->
  <circle cx="260" cy="170" r="4" fill="#e74c3c" opacity="0.9"/>
  <circle cx="120" cy="40" r="4" fill="#e74c3c" opacity="0.9"/>
  <circle cx="270" cy="130" r="4" fill="#e74c3c" opacity="0.9"/>
  <!-- Legend -->
  <circle cx="40" cy="38" r="3.5" fill="#3498db"/>
  <text x="48" y="41" fill="#ccc" font-size="7" font-family="sans-serif">Simple queries</text>
  <circle cx="40" cy="50" r="3.5" fill="#e67e22"/>
  <text x="48" y="53" fill="#ccc" font-size="7" font-family="sans-serif">Multi-step</text>
  <circle cx="40" cy="62" r="3.5" fill="#2ecc71"/>
  <text x="48" y="65" fill="#ccc" font-size="7" font-family="sans-serif">Complex research</text>
  <circle cx="40" cy="74" r="4" fill="#e74c3c"/>
  <text x="48" y="77" fill="#ccc" font-size="7" font-family="sans-serif">Outliers</text>
</svg>
